<svg width="256" height="67" viewBox="0 0 256 67" fill="none" xmlns="http://www.w3.org/2000/svg">
<g clip-path="url(#clip0_1436_138)">
<path d="M78.4642 0.833434L76.7775 0L75.9443 1.6872L54.6465 44.8632L97.8111 66.1666L99.4978 67L100.331 65.3128L121.629 22.1368L78.4642 0.833434ZM118.052 23.3565L108.724 42.2206L89.1537 32.5649L79.6023 4.39078L118.052 23.3565ZM77.0823 5.24454L85.7802 30.9184L68.5876 22.4417L77.062 5.24454H77.0823ZM58.1419 43.6638L67.4292 24.7998L86.9793 34.4554L96.5307 62.6296L58.1419 43.6435V43.6638ZM90.3324 36.1223L107.525 44.5989L99.0507 61.7961L90.3528 36.1223H90.3324Z" fill="white"/>
<path d="M76.0451 0.833434L74.3583 0L73.5251 1.6872L52.207 44.8632L95.3716 66.1666L97.0583 67L97.8916 65.3128L119.189 22.1368L76.0451 0.833434ZM115.633 23.3565L106.305 42.2409L86.7346 32.5853L77.1831 4.4111L115.633 23.3768V23.3565ZM74.6835 5.24454L83.3814 30.9184L66.1888 22.4417L74.6632 5.24454H74.6835ZM55.7431 43.6638L65.0304 24.7998L84.5805 34.4554L94.1319 62.6296L55.7431 43.6435V43.6638ZM87.9336 36.1223L105.126 44.5989L96.6519 61.7961L87.954 36.1223H87.9336Z" fill="white"/>
<path d="M0 30.4508H5.12122V61.4098H0V30.4508ZM19.3672 30.4508V34.2724H6.84861V30.4508H19.3672ZM18.0665 47.4651H6.84861V44.0297H18.0665V47.4651ZM6.84861 57.5882H19.3672V61.4098H6.84861V57.5882Z" fill="white"/>
<path d="M26.2559 61.4302V30.4712H31.3771V61.4302H26.2559ZM43.5095 30.4712H48.6307V61.4302H43.5095L33.1045 43.115V33.4594L43.5095 51.8152V30.4712Z" fill="white"/>
<path d="M122.645 30.4509H127.766L136.078 49.5589V57.3241H134.736L127.766 40.1065V61.4099H122.645V30.4509ZM146.117 30.4509H151.238V61.4099H146.117V40.1065L139.187 57.3241H137.805V49.6402L146.117 30.4305V30.4509Z" fill="white"/>
<path d="M159.104 30.4508H164.225V61.4098H159.104V30.4508ZM178.471 30.4508V34.2724H165.952V30.4508H178.471ZM177.17 47.4651H165.952V44.0297H177.17V47.4651ZM165.952 57.5882H178.471V61.4098H165.952V57.5882Z" fill="white"/>
<path d="M185.521 30.4508H190.561V61.4098H185.521V30.4508ZM194.849 30.4508C197.451 30.4508 199.747 30.8574 201.718 31.6908C203.69 32.5242 205.336 33.6219 206.636 34.9839C207.937 36.3662 208.912 37.9111 209.563 39.6592C210.213 41.4074 210.538 43.2166 210.538 45.0664C210.538 47.6074 210.274 49.8027 209.725 51.5916C209.177 53.4007 208.486 54.905 207.652 56.1247C206.819 57.3443 205.864 58.2997 204.807 59.0112C203.751 59.7023 202.734 60.2308 201.759 60.5967C200.784 60.9423 199.889 61.1659 199.076 61.2676C198.264 61.3692 197.654 61.4098 197.268 61.4098H192.309V57.7102H195.581C198.995 57.7102 201.454 56.6125 202.978 54.4375C204.482 52.2624 205.254 49.0913 205.254 44.9444C205.254 43.6638 205.092 42.3831 204.787 41.1228C204.482 39.8625 203.893 38.7242 202.999 37.7078C202.125 36.6914 200.926 35.858 199.402 35.2278C197.898 34.5977 195.927 34.2927 193.528 34.2927H192.309V30.4711H194.87L194.849 30.4508Z" fill="white"/>
<path d="M222.895 61.4302H217.773V30.4712H222.895V61.4302Z" fill="white"/>
<path d="M256 61.4302H250.797L242.77 38.2364L234.661 61.4302H229.418L240.25 30.5118H245.249L256 61.4302ZM245.534 51.5916L246.753 54.9864H238.726L239.904 51.5916H245.534Z" fill="white"/>
</g>
<defs>
<clipPath id="clip0_1436_138">
<rect width="256" height="67" fill="white"/>
</clipPath>
</defs>
</svg>
